<svg xmlns="http://www.w3.org/2000/svg" width="350.703" height="75.603" viewBox="0 0 350.703 75.603">
  <g id="Group_1" data-name="Group 1" transform="translate(-95.982 -169.491)">
    <path id="Path_61" data-name="Path 61" d="M95.982,235.21V179.439h17.131V235.21H95.982m27.423,0V179.439h16.006l14.661,25.943a19.068,19.068,0,0,1,1.437,3.1c.522,1.34,1.043,2.952,1.612,4.857-.139-1-.242-2.081-.314-3.281-.068-1.176-.091-2.629-.091-4.3V179.439h16.063V235.21H156.715l-14.673-25.749a22.394,22.394,0,0,1-1.473-3.205c-.522-1.4-1.077-2.976-1.634-4.78.162,1,.3,2.027.371,3.093.093,1.062.1,2.592.1,4.5v26.14Zm70.351,0V194.143H178.62v-14.7h47.1v14.7h-15.1V235.21Zm37.342,0V179.439h41.923v13.416H247.974v7.395h21.164v12.777H247.974v8.6h26.055V235.21Zm50.766,0V179.439h25.1c7.835,0,13.445,1.265,16.805,3.755s5.031,6.594,5.031,12.3a16.244,16.244,0,0,1-2.04,8.485,14.354,14.354,0,0,1-6.374,5.331,9.971,9.971,0,0,1,6.374,3.878c1.31,1.927,2.04,4.78,2.132,8.5l.28,7.771a.524.524,0,0,0,.069.2c.033,2.206.556,3.381,1.461,3.469v2.088H313.736c-.311-1.326-.555-2.5-.684-3.5a13.769,13.769,0,0,1-.22-2.315v-5.581c0-2.878-.558-4.918-1.621-6.082s-2.945-1.751-5.566-1.751h-7.163V235.21ZM298.482,203.4h7.663c2.7,0,4.553-.4,5.574-1.152,1.02-.777,1.53-2.127,1.53-4.029q0-2.967-1.53-4.13c-1.02-.751-3.023-1.164-6-1.164h-7.234Zm148.2,41.69H334.633v-75.6H446.685Z" transform="translate(0 0)" fill="#e3001b" fill-rule="evenodd"/>
    <path id="Path_62" data-name="Path 62" d="M358.767,236.343V180.586h41.922v13.4H375.655v7.424h21.153v12.748H375.655v8.6H401.72v13.589H358.767m45.307,0,17.953-28.992-16.375-26.765h18.9l7.011,14.124,7.638-14.124h18.487l-16.956,26.765L458.3,236.343H439.273l-7.9-15.092-8,15.092Z" transform="translate(-16.127 -0.681)" fill="#fff" fill-rule="evenodd"/>
  </g>
</svg>
